<?xml version="1.0" encoding="utf-8"?>
<svg version="1.1" xmlns:xlink="http://www.w3.org/1999/xlink" width="610px" height="310px" xmlns="http://www.w3.org/2000/svg">
  <defs>
    <filter x="30px" y="104px" width="610px" height="310px" filterUnits="userSpaceOnUse" id="filter7">
      <feOffset dx="5" dy="5" in="SourceAlpha" result="shadowOffsetInner" />
      <feGaussianBlur stdDeviation="2.5" in="shadowOffsetInner" result="shadowGaussian" />
      <feComposite in2="shadowGaussian" operator="atop" in="SourceAlpha" result="shadowComposite" />
      <feColorMatrix type="matrix" values="0 0 0 0 1  0 0 0 0 1  0 0 0 0 1  0 0 0 0.349019607843137 0  " in="shadowComposite" />
    </filter>
    <g id="widget8">
      <path d="M 31.5 107  A 1.5 1.5 0 0 1 33 105.5 L 627 105.5  A 1.5 1.5 0 0 1 628.5 107 L 628.5 401  A 1.5 1.5 0 0 1 627 402.5 L 33 402.5  A 1.5 1.5 0 0 1 31.5 401 L 31.5 107  Z " fill-rule="nonzero" fill="#ffffff" stroke="none" fill-opacity="0" />
      <path d="M 31 107  A 2 2 0 0 1 33 105 L 627 105  A 2 2 0 0 1 629 107 L 629 401  A 2 2 0 0 1 627 403 L 33 403  A 2 2 0 0 1 31 401 L 31 107  Z " stroke-width="2" stroke="#81d3f8" fill="none" />
    </g>
  </defs>
  <g transform="matrix(1 0 0 1 -30 -104 )">
    <use xlink:href="#widget8" filter="url(#filter7)" />
    <use xlink:href="#widget8" />
  </g>
</svg>